<svg xmlns="http://www.w3.org/2000/svg" width="338" height="146.106" viewBox="0 0 338 146.106">
  <g id="logo" transform="translate(-791 -134.894)">
    <g id="text" transform="translate(811 95)">
      <text id="Клуб_по_спелеология_и_екстремен_туризъм" data-name="Клуб по спелеология и екстремен туризъм" transform="translate(-20 179)" fill="#bdbdbd" font-size="18" font-family="SourceSansPro-Regular, Source Sans Pro"><tspan x="0" y="0">Клуб по спелеология и екстремен туризъм</tspan></text>
    </g>
    <g id="Icon">
      <path id="Exclusion_1" data-name="Exclusion 1" d="M28.516,121.494h0l0-.022c-.079-1.151-.731-11.307.677-13.268a3.459,3.459,0,0,1,3.04-1.073c.174,0,.365,0,.6.006l.111,0c.165,0,.334,0,.5,0a4.181,4.181,0,0,0,2.878-.75c.9-.776,1.957-3.739,2.7-7.548.6-3.077,1.046-7.155.492-9.374-.457-1.83-2.8-4.861-5.062-7.792l-.007-.009-.014-.018-.423-.547h-3.42V76.392c.923,1.453,2.2,3.125,3.419,4.712v0h1.955V67.566l-.74.411-.021.011a37.593,37.593,0,0,0-4.615,2.824V61.393H11.136V81.105H5.76V39.121h5.376V56.658H30.592V39.121h5.376V67.566c3.294-1.836,6.617-3.826,7.879-6.188,1.318-2.468,2.062-10.615,2.782-18.5.687-7.522,1.335-14.627,2.425-16.132,1.118-1.545,4.287-2.528,7.352-3.478s5.931-1.838,6.534-3.2a41.48,41.48,0,0,0,1.437-5.694l0-.021C65.435,9.453,66.747,3.348,68.5,1.975,70.006.794,73.191,0,76.423,0a13.155,13.155,0,0,1,7.505,1.975c1.966,1.395,6.006,5.891,11.084,12.336a160.862,160.862,0,0,1,10.415,14.494,46.115,46.115,0,0,1,3.785,9.463l0,.009,0,.012c.294.933.571,1.815.853,2.627a23.758,23.758,0,0,0-9.591-1.8h-10.5V65.13c-4.377-4.108-7.42-6.281-9.045-6.457C80.5,46.329,73.45,38.354,62.976,38.354c-10.886,0-17.92,8.466-17.92,21.568,0,13.13,7.2,21.952,17.92,21.952a17.406,17.406,0,0,0,6.758-1.308c-.363-.593-.753-1.185-1.131-1.758-.582-.883-1.132-1.716-1.508-2.434,4.546-1.808,7.522-6.745,8.164-13.546-.854.944-1.779,2.044-2.751,3.269a69.038,69.038,0,0,0-5.841,8.364c-.182.4-.046,1.008.428,1.913a11.091,11.091,0,0,1-4.119.764c-7.5,0-12.352-6.757-12.352-17.215,0-5.092,1.165-9.355,3.368-12.329a11.244,11.244,0,0,1,18,0c2.224,2.98,3.4,7.243,3.4,12.329,0,.992-.045,1.97-.133,2.906,2.333-2.58,4.1-3.976,5.251-4.151a1.446,1.446,0,0,1,.221-.016,1.942,1.942,0,0,1,.207.012c.015.421.022.841.022,1.249a31.477,31.477,0,0,1-.793,7.205,23.08,23.08,0,0,1-2.257,5.939,16.827,16.827,0,0,1-8.176,7.5c.874,1.428,1.834,3.237,1.5,4.555-.459,1.818-5.315,4.32-9.218,6.331-2.747,1.414-5.118,2.636-5.18,3.222-.149,1.409,0,6.6,0,6.651h51.179l0-.014c.091-.7.869-6.891,0-8.4-.3-.512-1.126-2.41-2.176-4.815l-.008-.019,0-.007c-.911-2.087-2.045-4.684-3.125-7.034,11.36-.774,17.616-8.274,17.616-21.118,0-5.313-1.1-9.716-3.269-13.086,1.584.454,3.061.949,3.742,1.98.7,1.062.852,5.568,1,9.926.153,4.537.311,9.227,1.078,10.242.623.824,3.3,2.565,6.4,4.58l.121.079.017.011v7.452h5.376V77.237c2.8,1.966,4.3,3.293,4.72,4.176.675,1.429.3,6.1-.063,10.626l0,.02v.006c-.385,4.794-.783,9.751.065,10.866.777,1.021,3.492,1.061,6.366,1.1,3.224.047,6.557.1,7.445,1.541,1.623,2.645.068,15.221,0,15.755v.006ZM176.448,81.106h-5.376V61.393H151.616V81.105H146.24V39.121h5.376V56.658h19.456V39.121h5.376V81.105Zm-75.712,0H89.984V65.13c1.624,1.524,3.382,3.265,5.377,5.323V76.69H100.1c.164,0,.331,0,.5-.005.572,1.084,1.261,2.509,2.11,4.355C102.057,81.084,101.4,81.105,100.736,81.105Zm34.048-3.869h0c-1.7-1.194-3.652-2.462-5.374-3.582V39.121h5.376V77.237Zm-34.19-.552h0A10.938,10.938,0,0,0,99.2,74.461c-.237-.236-.664-.685-1.242-1.294l-.008-.009c-.7-.737-1.572-1.654-2.59-2.705V43.537H100.1c4.831,0,8.532,1.424,11,4.232,2.426,2.76,3.656,6.849,3.656,12.152,0,5.265-1.188,9.377-3.532,12.22-2.4,2.913-5.976,4.441-10.625,4.543Zm-70-.293,0,0c-1.173-1.848-1.631-3.117-1.4-3.881a3.812,3.812,0,0,1,1.4-1.7v5.579Zm86.459-29.556h0l-.6-.17-.009,0a11.23,11.23,0,0,1-4.363-1.875,10.054,10.054,0,0,1-2.007-3.871,15.63,15.63,0,0,1,6.979,5.916Z" transform="translate(869.24 134.894)" fill="#bdbdbd"/>
    </g>
  </g>
</svg>
